<svg id="Layer_1" data-name="Layer 1" xmlns="http://www.w3.org/2000/svg" viewBox="0 0 39.25 43.73">
  <defs>
    <style>
      .cls-1 {
        fill: #018bff;
      }
      @keyframes petal {
        from {
          transform: scale(0);
          opacity: 0;
        }
        25% {
          transform: scale(1);
          opacity: 1;
        }
        75% {
          transform: scale(1);
          opacity: 1;
        }
        to {
          transform: scale(0);
          opacity: 0;
        }
      }
      .petal-1 {
        animation-delay: .1s;
      }
      .petal-2 {
        animation-delay: .2s;
      }
      .petal-3 {
        animation-delay: .3s;
      }
      .petal-4 {
        animation-delay: .4s;
      }
      .petal-5 {
        animation-delay: .5s;
      }
      .petal-6 {
        animation-delay: .6s;
      }
      .animatedPetals {
        animation-duration: 3s;
        animation-timing-function: cubic-bezier(0.25, 1, 0.5, 1);
        animation-iteration-count: infinite;
        animation-name: petal;
        transform-origin: center center;
        transform: scale(0);
      }
    </style>
  </defs>
  <title>Bloom</title>
  <g id="Bloom" class="animatedPetals">
    <path class="cls-1 animatedPetals petal-6" d="M19.63,30.6a8.63,8.63,0,0,1-3.73-.85c-2.86,6.63-1.75,10.91.53,12.82a5,5,0,0,0,6.41,0c2.28-1.91,3.38-6.19.52-12.82A8.59,8.59,0,0,1,19.63,30.6Z"/>
    <path class="cls-1 animatedPetals petal-4" d="M36,8.72c-2.8-1-7.06.19-11.37,6a8.7,8.7,0,0,1,3.73,6.45c7.18-.84,10.32-3.93,10.85-6.85A5,5,0,0,0,36,8.72Z"/>
    <path class="cls-1 animatedPetals petal-5" d="M24.59,29c4.31,5.79,8.57,7,11.37,6a5,5,0,0,0,3.21-5.56c-.53-2.92-3.67-6-10.85-6.86A8.71,8.71,0,0,1,24.59,29Z"/>
    <path class="cls-1 animatedPetals petal-2" d="M14.65,14.69c-4.31-5.78-8.57-7-11.37-6a5,5,0,0,0-3.2,5.56c.52,2.92,3.67,6,10.84,6.85A8.81,8.81,0,0,1,14.65,14.69Z"/>
    <path class="cls-1 animatedPetals petal-3" d="M19.63,13.14a8.59,8.59,0,0,1,3.73.85c2.86-6.64,1.76-10.91-.52-12.82a5,5,0,0,0-6.41,0C14.15,3.08,13,7.35,15.9,14A8.63,8.63,0,0,1,19.63,13.14Z"/>
    <path class="cls-1 animatedPetals petal-1" d="M10.92,22.57C3.75,23.42.6,26.51.08,29.43A5,5,0,0,0,3.28,35c2.8,1,7.06-.18,11.37-6A8.78,8.78,0,0,1,10.92,22.57Z"/>
  </g>
</svg>
