<svg width="16" height="16" viewBox="0 0 16 16" fill="none" xmlns="http://www.w3.org/2000/svg">
<g clip-path="url(#clip0_2_3271)">
<path d="M3.5 9.49854V12.4985H0.5" stroke-linecap="round" stroke-linejoin="round"/>
<path d="M12.5 6.49853V3.49854H15.5" stroke-linecap="round" stroke-linejoin="round"/>
<path d="M12.6877 3.49658C13.7222 4.5743 14.354 5.97538 14.4768 7.46417C14.5996 8.95296 14.2059 10.4386 13.362 11.6713C12.5181 12.9039 11.2755 13.8084 9.84313 14.2325C8.41075 14.6566 6.87602 14.5744 5.49707 13.9999" stroke-linecap="round" stroke-linejoin="round"/>
<path d="M3.31106 12.5007C2.27885 11.4224 1.64907 10.0218 1.52748 8.5341C1.40588 7.04637 1.79988 5.56211 2.64331 4.33055C3.48674 3.09899 4.72823 2.19513 6.15932 1.77075C7.59041 1.34638 9.12394 1.42732 10.5024 2" stroke-linecap="round" stroke-linejoin="round"/>
</g>
<defs>
<clipPath id="clip0_2_3271">
<rect width="16" height="16" fill="white"/>
</clipPath>
</defs>
</svg>
