<?xml version="1.0" encoding="utf-8"?>
<!-- Generator: Adobe Illustrator 21.1.0, SVG Export Plug-In . SVG Version: 6.00 Build 0)  -->
<svg version="1.1" id="Layer_1" xmlns="http://www.w3.org/2000/svg" xmlns:xlink="http://www.w3.org/1999/xlink" x="0px" y="0px"
	 viewBox="0 0 20 20" style="enable-background:new 0 0 20 20;" xml:space="preserve">
<path d="M5,1.4C6.5,0.5,8.2,0,10,0c1.8,0,3.5,0.5,5.1,1.4c1.5,0.9,2.7,2.1,3.6,3.6C19.5,6.5,20,8.2,20,10
	s-0.5,3.5-1.4,5.1c-0.9,1.5-2.1,2.7-3.6,3.6C13.5,19.5,11.8,20,10,20s-3.5-0.5-5.1-1.4c-1.5-0.9-2.7-2.1-3.6-3.6
	C0.5,13.5,0,11.8,0,10c0-1.8,0.5-3.5,1.4-5C2.3,3.4,3.4,2.3,5,1.4L5,1.4z M11,11V5H9v6H11z M11,15v-2H9v2H11z"/>
</svg>
