<?xml version="1.0" encoding="UTF-8"?>
<svg version="1.1" viewBox="0 0 24 24" xmlns="http://www.w3.org/2000/svg" xmlns:xlink="http://www.w3.org/1999/xlink">
    <!--Generated by IJSVG (https://github.com/curthard89/IJSVG)-->
    <defs>
        <path id="path-1" d="M2.70711,0.585786c0.585786,0.585786 0.585786,1.53553 0,2.12132c-0.585786,0.585786 -1.53553,0.585786 -2.12132,0c-0.585786,-0.585786 -0.585786,-1.53553 0,-2.12132c0.585786,-0.585786 1.53553,-0.585786 2.12132,0"></path>
    </defs>
    <g fill="none" stroke="#000000" stroke-linejoin="round" stroke-width="1">
        <path d="M7.21895,1.5621c1.5621,1.5621 1.5621,4.09476 0,5.65685c-1.5621,1.5621 -4.09476,1.5621 -5.65685,0c-1.5621,-1.5621 -1.5621,-4.09476 -1.77636e-15,-5.65685c1.5621,-1.5621 4.09476,-1.5621 5.65685,-8.88178e-16" transform="translate(9.10848, 6.11048)"></path>
        <use transform="translate(0.353553, 3.85455)" xlink:href="#path-1"></use>
        <path d="M2.70711,0.585786c0.585786,0.585786 0.585786,1.53553 0,2.12132c-0.585786,0.585786 -1.53553,0.585786 -2.12132,8.88178e-16c-0.585786,-0.585786 -0.585786,-1.53553 0,-2.12132c0.585786,-0.585786 1.53553,-0.585786 2.12132,0" transform="translate(20.3536, 0.354553)"></path>
        <use transform="translate(0.353553, 20.3546)" xlink:href="#path-1"></use>
        <use transform="translate(11.8526, 20.3546)" xlink:href="#path-1"></use>
        <path d="M0,7.6l7.62,-7.6" transform="translate(3.06, 13.34)"></path>
        <path d="M0,4.62l4.61,-4.62" transform="translate(16.33, 3.06)"></path>
        <path d="M0,0l6.47,2.78" transform="translate(3.35, 6.15)"></path>
        <path d="M3.62,1.5l-3.62,-1.5" transform="translate(16.94, 12.53)"></path>
        <path d="M0,6v-6" transform="translate(13.5, 14.5)"></path>
        <use transform="translate(20.3536, 12.8546)" xlink:href="#path-1"></use>
    </g>
</svg>