<?xml version="1.0" encoding="utf-8"?>
<!-- Generator: Adobe Illustrator 21.1.0, SVG Export Plug-In . SVG Version: 6.00 Build 0)  -->
<svg version="1.1" id="Layer_1" xmlns="http://www.w3.org/2000/svg" xmlns:xlink="http://www.w3.org/1999/xlink" x="0px" y="0px"
	 viewBox="0 0 24.5 24" style="enable-background:new 0 0 24.5 24;" xml:space="preserve">
<style type="text/css">
	.st0{fill:#FFFFFF;}
</style>
<g>
	<g>
		<g>
			<circle class="st0" cx="5" cy="11.8" r="4.5"/>
		</g>
		<g>
			<path d="M5,7.8c2.2,0,4,1.8,4,4s-1.8,4-4,4s-4-1.8-4-4S2.8,7.8,5,7.8 M5,6.8c-2.8,0-5,2.2-5,5s2.2,5,5,5s5-2.2,5-5S7.8,6.8,5,6.8
				L5,6.8z"/>
		</g>
	</g>
	<g>
		<g>
			<circle cx="19.5" cy="11.8" r="5"/>
		</g>
	</g>
	<g>
		<g>
			<path d="M16.5,4H14c-0.3,0-0.5-0.2-0.5-0.5S13.7,3,14,3h2V1c0-0.3,0.2-0.5,0.5-0.5S17,0.7,17,1v2.5C17,3.8,16.8,4,16.5,4z"/>
		</g>
		<g>
			<path d="M16.5,4c-0.2,0-0.4-0.1-0.5-0.3C15.5,2.1,13.8,1,12,1S8.5,2.1,8,3.7C7.9,3.9,7.6,4.1,7.3,4C7.1,3.9,6.9,3.6,7,3.3
				C7.7,1.4,9.8,0,12,0s4.3,1.4,5,3.3c0.1,0.3,0,0.5-0.3,0.6C16.6,4,16.6,4,16.5,4z"/>
		</g>
	</g>
	<g>
		<g>
			<path d="M7.5,23.5C7.2,23.5,7,23.3,7,23v-2.5C7,20.2,7.2,20,7.5,20H10c0.3,0,0.5,0.2,0.5,0.5S10.3,21,10,21H8v2
				C8,23.3,7.8,23.5,7.5,23.5z"/>
		</g>
		<g>
			<path d="M12,24c-2.2,0-4.3-1.4-5-3.3c-0.1-0.3,0-0.5,0.3-0.6s0.5,0,0.6,0.3c0.5,1.5,2.3,2.7,4,2.7c1.8,0,3.5-1.1,4-2.7
				c0.1-0.3,0.4-0.4,0.6-0.3c0.3,0.1,0.4,0.4,0.3,0.6C16.3,22.6,14.2,24,12,24z"/>
		</g>
	</g>
</g>
</svg>
