<svg id="Layer_1" data-name="Layer 1" xmlns="http://www.w3.org/2000/svg" xmlns:xlink="http://www.w3.org/1999/xlink" viewBox="0 0 53.79 50.5">
  <defs>
    <clipPath id="clip-path" transform="translate(-13.1 -23.19)"><rect class="cls-1" width="92" height="92"/></clipPath>
  </defs>
  <title>Neo4j-icon-black</title>
  <g class="cls-2"><path class="cls-3" d="M49.21,23.19c-10.58,0-17.68,6.16-17.68,18.11v8.52a7.88,7.88,0,0,1,6.88,0V41.3c0-7.75,4.28-11.74,10.8-11.74S60,33.55,60,41.3V59.92h6.88V41.3c0-12-7.1-18.11-17.68-18.11" transform="translate(-13.1 -23.19)"/><path
    class="cls-3"
    d="M34.68,51.19a5.89,5.89,0,0,0-3.54,1.19L24.66,48a6,6,0,0,0,.23-1.6A5.9,5.9,0,1,0,19,52.25a5.81,5.81,0,0,0,3.54-1.19L29,55.49a5.86,5.86,0,0,0,0,3.18L22.53,63.1a5.88,5.88,0,1,0,2.36,4.7,5.93,5.93,0,0,0-.23-1.59l6.48-4.43A5.83,5.83,0,0,0,34.68,63a5.89,5.89,0,0,0,0-11.78"
    transform="translate(-13.1 -23.19)"/></g>
</svg>