<?xml version="1.0" encoding="utf-8"?>
<!-- Generator: Adobe Illustrator 21.1.0, SVG Export Plug-In . SVG Version: 6.00 Build 0)  -->
<svg version="1.1" id="Layer_1" xmlns="http://www.w3.org/2000/svg" xmlns:xlink="http://www.w3.org/1999/xlink" x="0px" y="0px"
	 viewBox="0 0 36.8 35.4" style="enable-background:new 0 0 36.8 35.4;" xml:space="preserve">
<style type="text/css">
	.st0{fill:none;stroke:#F28C8C;stroke-width:1.25;stroke-linecap:round;stroke-linejoin:round;stroke-miterlimit:10;}
</style>
<g>
	<path d="M35.6,23.4c-0.6-0.6-1.4-1-2.2-1.1l0-9.1c1.9-0.3,3.4-2,3.4-4c0-2.2-1.8-4-4-4c-1.7,0-3.2,1.1-3.8,2.6c0,0-0.1,0-0.1,0
		L8,3.5C7.9,2.6,7.5,1.8,6.9,1.2C6.1,0.4,5.2,0,4,0C3,0,2,0.4,1.2,1.2C0.4,1.9,0,3,0,4c0,1.1,0.4,2.1,1.2,2.9c0.6,0.6,1.4,1,2.2,1.1
		l0,19.3c-1.9,0.3-3.4,2-3.4,4c0,1.1,0.4,2.1,1.2,2.9c0.8,0.8,1.8,1.2,2.8,1.2c0,0,0,0,0,0c1.1,0,2.1-0.4,2.9-1.2
		c0.6-0.6,1-1.5,1.1-2.3L28.8,27c0.4,1.8,2,3.2,3.9,3.2c0,0,0,0,0,0c2.2,0,4-1.8,4-4C36.8,25.1,36.3,24.1,35.6,23.4z M32.7,6.4
		C32.7,6.4,32.8,6.4,32.7,6.4c1.5,0,2.8,1.3,2.8,2.8c0,1.5-1.3,2.8-2.8,2.8c0,0,0,0,0,0c-1.5,0-2.8-1.3-2.8-2.8
		C30,7.6,31.2,6.4,32.7,6.4z M1.3,4c0-0.7,0.3-1.4,0.8-2c0.5-0.5,1.2-0.8,2-0.8c0,0,0,0,0,0c0.7,0,1.4,0.3,1.9,0.8
		c0.5,0.5,0.8,1.2,0.8,2c0,0.7-0.3,1.4-0.8,2C5.5,6.5,4.8,6.8,4,6.8c-0.7,0-1.4-0.3-2-0.8C1.5,5.5,1.3,4.8,1.3,4z M6,33.3
		c-0.5,0.5-1.2,0.8-2,0.8c-0.8,0-1.4-0.3-2-0.8c-0.5-0.5-0.8-1.2-0.8-2c0-1.5,1.3-2.8,2.8-2.8c0,0,0,0,0,0c1.5,0,2.8,1.3,2.8,2.8
		C6.8,32.1,6.5,32.8,6,33.3z M29.9,23.4c-0.7,0.7-1,1.5-1.1,2.4L8,30.6c-0.3-1.7-1.6-2.9-3.3-3.2L4.7,8c0.8-0.1,1.6-0.5,2.2-1.1
		c0.6-0.6,1-1.3,1.1-2.1l20.6,4.1c0,0,0,0,0.1,0c0,0.1,0,0.2,0,0.2c0,2,1.5,3.7,3.4,4l0,9.1C31.3,22.4,30.5,22.7,29.9,23.4z
		 M32.7,29C32.7,29,32.7,29,32.7,29c-1.5,0-2.8-1.3-2.8-2.8c0-0.7,0.3-1.4,0.8-2c0.5-0.5,1.2-0.8,2-0.8c0,0,0,0,0,0
		c0.7,0,1.4,0.3,1.9,0.8c0.5,0.5,0.8,1.2,0.8,2C35.5,27.8,34.3,29,32.7,29z"/>
</g>
</svg>
