<svg id="Layer_1" data-name="Layer 1" xmlns="http://www.w3.org/2000/svg" viewBox="0 0 28.77 26.82"><title>noicon</title><path d="M13.41,8.7H11.1L7.37,2.22h0c.08,1.15.11,2,.11,2.45v4H5.81V.13H8.1l3.72,6.42h0c-.06-1.11-.09-1.9-.09-2.36V.13h1.64Z"/><path d="M23.34,4.41a4.69,4.69,0,0,1-1.05,3.27,3.93,3.93,0,0,1-3,1.14,3.91,3.91,0,0,1-3-1.14,4.71,4.71,0,0,1-1.06-3.29,4.62,4.62,0,0,1,1.06-3.26,4,4,0,0,1,3-1.13,3.88,3.88,0,0,1,3,1.14A4.62,4.62,0,0,1,23.34,4.41Zm-6.25,0a3.62,3.62,0,0,0,.54,2.16,1.93,1.93,0,0,0,1.63.72c1.45,0,2.18-1,2.18-2.88s-.72-2.9-2.17-2.9a1.91,1.91,0,0,0-1.63.73A3.56,3.56,0,0,0,17.09,4.41Z"/><path d="M0,26.7V18.13H1.82V26.7Z"/><path d="M7.61,19.52A1.87,1.87,0,0,0,6,20.29a3.64,3.64,0,0,0-.56,2.15c0,1.91.72,2.87,2.15,2.87a6.65,6.65,0,0,0,2.19-.46v1.53a6.16,6.16,0,0,1-2.36.44,3.62,3.62,0,0,1-2.86-1.13,4.83,4.83,0,0,1-1-3.26,5.23,5.23,0,0,1,.49-2.34,3.49,3.49,0,0,1,1.4-1.54A4.06,4.06,0,0,1,7.61,18a5.81,5.81,0,0,1,2.51.6l-.59,1.48c-.32-.15-.64-.28-1-.4A3,3,0,0,0,7.61,19.52Z"/><path d="M19.39,22.41a4.69,4.69,0,0,1-1.05,3.27,3.91,3.91,0,0,1-3,1.14,3.93,3.93,0,0,1-3-1.14,4.71,4.71,0,0,1-1-3.29,4.57,4.57,0,0,1,1.06-3.26,4,4,0,0,1,3-1.13,3.91,3.91,0,0,1,3,1.14A4.62,4.62,0,0,1,19.39,22.41Zm-6.25,0a3.55,3.55,0,0,0,.55,2.16,1.9,1.9,0,0,0,1.63.72c1.45,0,2.17-1,2.17-2.88s-.72-2.9-2.16-2.9a2,2,0,0,0-1.64.73A3.63,3.63,0,0,0,13.14,22.41Z"/><path d="M28.77,26.7H26.46l-3.73-6.48h-.05c.08,1.14.11,2,.11,2.45v4H21.17V18.13h2.29l3.72,6.42h0c-.06-1.11-.09-1.9-.09-2.36V18.13h1.64Z"/></svg>