<svg width="24" height="26" viewBox="0 0 24 26" fill="none" xmlns="http://www.w3.org/2000/svg">
<path d="M21.75 3.93384H8.25C7.42157 3.93384 6.75 4.63833 6.75 5.50737V13.375C6.75 14.2441 7.42157 14.9485 8.25 14.9485H21.75C22.5784 14.9485 23.25 14.2441 23.25 13.375V5.50737C23.25 4.63833 22.5784 3.93384 21.75 3.93384Z" stroke-width="1.5" stroke-linecap="round" stroke-linejoin="round"/>
<path d="M3.75 7.86765V16.5221C3.75 16.9394 3.90804 17.3396 4.18934 17.6347C4.47064 17.9298 4.85218 18.0956 5.25 18.0956H19.5" stroke-width="1.5" stroke-linecap="round" stroke-linejoin="round"/>
<path d="M0.75 11.0147V19.6691C0.75 20.0864 0.908035 20.4867 1.18934 20.7818C1.47064 21.0769 1.85218 21.2427 2.25 21.2427H16.5" stroke-width="1.5" stroke-linecap="round" stroke-linejoin="round"/>
</svg>
