<?xml version="1.0" encoding="utf-8"?>
<!-- Generator: Adobe Illustrator 21.1.0, SVG Export Plug-In . SVG Version: 6.00 Build 0)  -->
<svg version="1.1" id="Layer_1" xmlns="http://www.w3.org/2000/svg" xmlns:xlink="http://www.w3.org/1999/xlink" x="0px" y="0px"
	 viewBox="0 0 60.6 60.6" style="enable-background:new 0 0 60.6 60.6;" xml:space="preserve">
<path d="M60.6,58.9L37.1,35.3c3.3-3.8,5.4-8.7,5.4-14.1C42.5,9.5,33,0,21.3,0C9.5,0,0,9.5,0,21.3C0,33,9.5,42.5,21.3,42.5
	c5.4,0,10.3-2,14.1-5.4l23.5,23.5L60.6,58.9z M21.3,40C10.9,40,2.5,31.6,2.5,21.3S10.9,2.5,21.3,2.5S40,10.9,40,21.3
	S31.6,40,21.3,40z"/>
</svg>
