<?xml version="1.0" encoding="UTF-8"?><svg xmlns="http://www.w3.org/2000/svg" xmlns:xlink="http://www.w3.org/1999/xlink" version="1.1" viewBox="0 0 24 24">
    <!--Generated by IJSVG (https://github.com/curthard89/IJSVG)-->
    <g fill="none" stroke="#000000" stroke-linejoin="round" stroke-width="1">
        <path d="M7.574,2.213c-0.656,-1.311 -2.008,-2.213 -3.574,-2.213c-2.209,0 -4,1.791 -4,4c0,2.209 1.791,4 4,4c1.566,0 2.918,-0.902 3.574,-2.213" transform="translate(0.5, 8)"/>
        <path d="M4,8c2.209,0 4,-1.791 4,-4c0,-2.209 -1.791,-4 -4,-4c-2.209,0 -4,1.791 -4,4c0,0.643 0.156,1.248 0.425,1.787" transform="translate(15.5, 0.5)"/>
        <path d="M1.327,2.213c-1.327,2.648 0.598,5.787 3.575,5.787c2.209,0 4,-1.791 4,-4c0,-2.209 -1.791,-4 -4,-4" transform="translate(14.598, 15.5)"/>
        <path d="M11.426,2.213c-1.566,0 -2.918,-0.902 -3.575,-2.213l-7.851,3.926c0.27,0.537 0.426,1.143 0.426,1.787c0,0.643 -0.156,1.248 -0.426,1.787l7.851,3.926c0.657,-1.311 2.009,-2.213 3.575,-2.213" transform="translate(8.074, 6.287)"/>
    </g>
    
</svg>
