<?xml version="1.0" encoding="utf-8"?>
<!-- Generator: Adobe Illustrator 21.1.0, SVG Export Plug-In . SVG Version: 6.00 Build 0)  -->
<svg version="1.1" id="Layer_1" xmlns="http://www.w3.org/2000/svg" xmlns:xlink="http://www.w3.org/1999/xlink" x="0px" y="0px"
	 viewBox="0 0 20 20" style="enable-background:new 0 0 20 20;" xml:space="preserve">
<path d="M2.9,2.9C4.9,1,7.2,0,10,0s5.1,1,7.1,2.9C19,4.9,20,7.2,20,10s-1,5.1-2.9,7.1C15.1,19,12.8,20,10,20
	s-5.1-1-7.1-2.9C1,15.1,0,12.8,0,10S1,4.9,2.9,2.9z M15.1,6.7c0,0,0-0.1,0-0.1c0-0.1,0-0.1,0-0.2l-1.4-1.1c0,0-0.1,0-0.2,0
	c-0.1,0-0.1,0-0.1,0l-5,6.4c-1.3-1.2-2-1.9-2-1.9C6.4,9.6,6.3,9.6,6.2,9.6c0,0-0.1,0-0.2,0.1l-1.1,1.1l0,0c0,0,0,0.1,0,0.2
	c0,0.1,0,0.1,0,0.1l0.1,0c2.3,2.2,3.5,3.4,3.5,3.4c0.1,0.1,0.2,0.1,0.2,0.1c0.1,0,0.1,0,0.2-0.1L15.1,6.7z"/>
</svg>
