<svg width="12" height="14" viewBox="0 0 12 14" fill="none" xmlns="http://www.w3.org/2000/svg">
<path d="M1.41666 13.2489H6.83332C7.82788 13.2489 8.78171 12.8538 9.48497 12.1506C10.1882 11.4473 10.5833 10.4935 10.5833 9.4989C10.5833 8.50434 10.1882 7.55051 9.48497 6.84725C8.78171 6.14399 7.82788 5.7489 6.83332 5.7489M6.83332 5.7489H7.24999C7.57829 5.7489 7.90338 5.68424 8.2067 5.5586C8.51001 5.43296 8.78561 5.24881 9.01776 5.01667C9.2499 4.78452 9.43405 4.50892 9.55969 4.20561C9.68532 3.9023 9.74999 3.57721 9.74999 3.2489C9.74999 2.9206 9.68532 2.59551 9.55969 2.29219C9.43405 1.98888 9.2499 1.71328 9.01776 1.48113C8.78561 1.24899 8.51001 1.06484 8.2067 0.939202C7.90338 0.813566 7.57829 0.748901 7.24999 0.748901H1.41666M6.83332 5.7489H3.08332M3.08332 0.748901V13.2489" stroke="#535B66" stroke-width="1.5" stroke-linecap="round" stroke-linejoin="round"/>
</svg>
