<?xml version="1.0" encoding="utf-8"?>
<!-- Generator: Adobe Illustrator 21.1.0, SVG Export Plug-In . SVG Version: 6.00 Build 0)  -->
<svg version="1.1" id="Layer_1" xmlns="http://www.w3.org/2000/svg" xmlns:xlink="http://www.w3.org/1999/xlink" x="0px" y="0px"
	 viewBox="0 0 30.5 22.3" style="enable-background:new 0 0 30.5 22.3;" xml:space="preserve">
<g>
	<path d="M12.4,22.3c-0.2,0-0.4-0.1-0.5-0.2L0.2,11.7C0.1,11.6,0,11.4,0,11.2c0-0.2,0.1-0.4,0.2-0.6l0,0L11.9,0.2
		c0.2-0.2,0.5-0.2,0.8-0.1c0.3,0.1,0.4,0.4,0.4,0.7v5C26.4,6,29.8,16.1,30.5,19.3c0.1,0.3-0.1,0.7-0.4,0.8c-0.3,0.2-0.7,0.1-0.9-0.1
		c-5.7-5.5-14.2-4.8-16.1-4.6v6.2c0,0.3-0.2,0.6-0.4,0.7C12.6,22.3,12.5,22.3,12.4,22.3z M1.1,11.2l11,9.8v-6.5l0.4-0.1
		c0.4-0.1,10-1.7,16.8,4.2C28.3,15,24.5,6.8,12.6,6.8h-0.5l0-0.5v-5L1.1,11.2z"/>
</g>
</svg>
