<svg fill="none" xmlns="http://www.w3.org/2000/svg" viewBox="0 0 24 24">
  <g clip-path="url(#a)" stroke-linecap="round" stroke-linejoin="round">
    <path d="M12 5.251c-4.03-.068-8.2 2.75-10.82 5.634a1.663 1.663 0 0 0 0 2.226C3.742 15.935 7.9 18.817 12 18.748c4.1.07 8.258-2.813 10.824-5.637a1.663 1.663 0 0 0 0-2.226C20.2 8 16.031 5.183 12 5.251Z"/>
    <path d="M15.75 12a3.75 3.75 0 1 1-7.499-.002A3.75 3.75 0 0 1 15.75 12Z"/>
  </g>
  <defs>
    <clipPath id="a">
      <path fill="#fff" d="M0 0h24v24H0z"/>
    </clipPath>
  </defs>
</svg>